<?xml version="1.0" encoding="UTF-8"?>
<svg xmlns="http://www.w3.org/2000/svg" xmlns:xlink="http://www.w3.org/1999/xlink" width="256pt" height="256pt" viewBox="0 0 256 256" version="1.1">
<g id="surface1">
<path style=" stroke:none;fill-rule:nonzero;fill:rgb(0%,0%,0%);fill-opacity:1;" d="M 222.46875 141.511719 L 221.09375 141.511719 C 218.167969 141.511719 215.796875 143.878906 215.796875 146.804688 C 215.796875 149.730469 218.167969 152.101562 221.09375 152.101562 L 222.46875 152.101562 C 225.394531 152.101562 227.765625 149.730469 227.765625 146.804688 C 227.765625 143.882812 225.394531 141.511719 222.46875 141.511719 Z M 222.46875 141.511719 "/>
<path style=" stroke:none;fill-rule:nonzero;fill:rgb(0%,0%,0%);fill-opacity:1;" d="M 255.347656 129.230469 C 251.84375 116.441406 242.851562 105.886719 230.9375 100.339844 C 230.363281 90.382812 222.082031 82.457031 211.984375 82.457031 C 203.351562 82.457031 196.050781 88.25 193.75 96.152344 C 190.179688 96.164062 186.554688 96.390625 182.964844 96.839844 C 161.148438 99.558594 139.628906 104.820312 119.007812 112.484375 C 98.890625 119.957031 79.625 129.722656 61.710938 141.511719 L 5.296875 141.511719 C 2.371094 141.511719 0 143.882812 0 146.808594 C 0 149.730469 2.371094 152.101562 5.296875 152.101562 L 111.121094 152.101562 L 111.121094 168.246094 C 111.121094 171.171875 113.492188 173.542969 116.417969 173.542969 L 124.667969 173.542969 C 127.59375 173.542969 129.964844 171.171875 129.964844 168.246094 C 129.964844 165.320312 127.59375 162.949219 124.667969 162.949219 L 121.714844 162.949219 L 121.714844 152.101562 L 186.304688 152.101562 L 186.304688 168.246094 C 186.304688 171.171875 188.675781 173.542969 191.601562 173.542969 L 199.851562 173.542969 C 202.777344 173.542969 205.148438 171.171875 205.148438 168.246094 C 205.148438 165.320312 202.777344 162.949219 199.851562 162.949219 L 196.898438 162.949219 L 196.898438 152.101562 L 205.445312 152.101562 C 208.367188 152.101562 210.738281 149.730469 210.738281 146.808594 C 210.738281 143.882812 208.367188 141.511719 205.445312 141.511719 L 81.921875 141.511719 C 94.957031 134.042969 108.613281 127.648438 122.695312 122.414062 C 126.601562 120.960938 130.542969 119.605469 134.511719 118.332031 L 134.511719 125.308594 C 134.511719 128.234375 136.882812 130.605469 139.808594 130.605469 C 142.734375 130.605469 145.105469 128.230469 145.105469 125.308594 L 145.105469 115.171875 C 148.078125 114.347656 151.0625 113.582031 154.0625 112.859375 L 154.0625 120.605469 C 154.0625 123.527344 156.433594 125.898438 159.359375 125.898438 C 162.28125 125.898438 164.65625 123.527344 164.65625 120.605469 L 164.65625 110.523438 C 167.726562 109.910156 170.8125 109.359375 173.902344 108.851562 L 173.902344 117.023438 C 173.902344 119.949219 176.273438 122.320312 179.199219 122.320312 C 182.125 122.320312 184.496094 119.949219 184.496094 117.023438 L 184.496094 107.328125 C 187.675781 106.941406 190.882812 106.742188 194.035156 106.742188 L 198.292969 106.742188 C 201.21875 106.742188 203.589844 104.371094 203.589844 101.445312 C 203.589844 96.816406 207.355469 93.050781 211.984375 93.050781 C 216.613281 93.050781 220.378906 96.816406 220.378906 101.445312 C 220.378906 101.929688 220.335938 102.410156 220.25 102.910156 C 220.246094 102.933594 220.246094 102.953125 220.242188 102.972656 C 220.230469 103.050781 220.222656 103.128906 220.214844 103.207031 C 220.203125 103.285156 220.195312 103.367188 220.1875 103.449219 C 220.183594 103.535156 220.179688 103.617188 220.179688 103.703125 C 220.179688 103.738281 220.175781 103.777344 220.175781 103.8125 C 220.175781 103.847656 220.179688 103.882812 220.179688 103.917969 C 220.179688 104.023438 220.1875 104.128906 220.195312 104.234375 C 220.203125 104.316406 220.210938 104.394531 220.21875 104.472656 C 220.230469 104.558594 220.242188 104.640625 220.257812 104.722656 C 220.273438 104.820312 220.292969 104.917969 220.316406 105.015625 C 220.332031 105.074219 220.347656 105.136719 220.363281 105.195312 C 220.394531 105.308594 220.425781 105.417969 220.464844 105.53125 C 220.480469 105.574219 220.496094 105.617188 220.511719 105.65625 C 220.554688 105.777344 220.601562 105.898438 220.65625 106.011719 C 220.671875 106.046875 220.691406 106.082031 220.707031 106.117188 C 220.765625 106.234375 220.824219 106.351562 220.890625 106.464844 C 220.910156 106.5 220.933594 106.535156 220.953125 106.566406 C 221.019531 106.675781 221.089844 106.78125 221.160156 106.882812 C 221.1875 106.921875 221.21875 106.960938 221.25 107 C 221.320312 107.09375 221.394531 107.1875 221.472656 107.277344 C 221.507812 107.320312 221.546875 107.359375 221.585938 107.402344 C 221.660156 107.484375 221.738281 107.566406 221.820312 107.644531 C 221.863281 107.683594 221.910156 107.722656 221.953125 107.761719 C 222.039062 107.835938 222.125 107.910156 222.214844 107.980469 C 222.257812 108.015625 222.300781 108.046875 222.34375 108.078125 C 222.445312 108.152344 222.546875 108.222656 222.648438 108.289062 C 222.6875 108.3125 222.722656 108.332031 222.761719 108.355469 C 222.882812 108.425781 223.003906 108.492188 223.128906 108.554688 C 223.15625 108.566406 223.183594 108.582031 223.210938 108.59375 C 223.347656 108.660156 223.488281 108.71875 223.632812 108.773438 C 223.644531 108.777344 223.65625 108.78125 223.667969 108.789062 C 234.160156 112.585938 242.183594 121.273438 245.132812 132.03125 C 245.316406 132.695312 245.40625 133.371094 245.40625 134.035156 C 245.40625 138.15625 242.039062 141.511719 237.898438 141.511719 C 234.972656 141.511719 232.601562 143.882812 232.601562 146.804688 C 232.601562 149.730469 234.976562 152.101562 237.898438 152.101562 C 247.882812 152.101562 256 143.996094 256 134.035156 C 256 132.425781 255.78125 130.808594 255.347656 129.230469 Z M 255.347656 129.230469 "/>
<path style=" stroke:none;fill-rule:nonzero;fill:rgb(0%,0%,0%);fill-opacity:1;" d="M 211.984375 102.679688 C 209.058594 102.679688 206.6875 105.050781 206.6875 107.976562 L 206.6875 112.519531 C 206.6875 115.445312 209.058594 117.816406 211.984375 117.816406 C 214.910156 117.816406 217.28125 115.445312 217.28125 112.519531 L 217.28125 107.976562 C 217.28125 105.050781 214.910156 102.679688 211.984375 102.679688 Z M 211.984375 102.679688 "/>
</g>
</svg>
