<?xml version="1.0" encoding="UTF-8"?>
<svg xmlns="http://www.w3.org/2000/svg" xmlns:xlink="http://www.w3.org/1999/xlink" width="256pt" height="256pt" viewBox="0 0 256 256" version="1.1">
<g id="surface1">
<path style=" stroke:none;fill-rule:nonzero;fill:rgb(0%,0%,0%);fill-opacity:1;" d="M 53.171875 105.777344 C 55.703125 105.117188 57.464844 102.824219 57.464844 100.207031 L 57.464844 75.917969 C 57.464844 72.734375 54.886719 70.15625 51.707031 70.15625 L 38.953125 70.15625 C 35.773438 70.15625 33.195312 72.734375 33.195312 75.917969 C 33.195312 79.09375 35.773438 81.671875 38.953125 81.671875 L 43.246094 81.671875 L 43.246094 95.3125 C 42.089844 95.890625 39.382812 96.277344 35.988281 96.277344 C 23.898438 96.277344 15.488281 88.34375 15.488281 74.898438 C 15.488281 60.777344 24.765625 53.808594 37.054688 53.808594 C 40.988281 53.808594 44.109375 54.1875 46.714844 54.789062 C 49.875 55.515625 53.039062 53.605469 53.851562 50.46875 C 54.285156 48.828125 54.019531 47.089844 53.136719 45.644531 C 52.257812 44.207031 50.824219 43.1875 49.167969 42.824219 C 45.933594 42.117188 41.886719 41.617188 37.246094 41.617188 C 15.867188 41.617188 0.09375 54.003906 0 75.671875 C -0.0898438 85.25 3.195312 93.761719 9.1875 99.378906 C 15.195312 105.179688 23.808594 108.175781 35.707031 108.175781 C 42.082031 108.175781 48.445312 107.011719 53.171875 105.777344 Z M 53.171875 105.777344 "/>
<path style=" stroke:none;fill-rule:nonzero;fill:rgb(0%,0%,0%);fill-opacity:1;" d="M 84.207031 90.765625 L 102.886719 90.765625 L 106.300781 102.117188 C 107.257812 105.3125 110.195312 107.496094 113.53125 107.496094 C 115.929688 107.496094 118.183594 106.359375 119.605469 104.425781 C 121.027344 102.496094 121.453125 100.003906 120.738281 97.710938 L 105.203125 47.609375 C 104.222656 44.449219 101.300781 42.296875 97.988281 42.296875 L 89.792969 42.296875 C 86.472656 42.296875 83.542969 44.464844 82.578125 47.636719 L 67.144531 98.144531 C 66.46875 100.335938 66.878906 102.722656 68.242188 104.5625 C 69.605469 106.40625 71.769531 107.496094 74.066406 107.496094 C 77.3125 107.496094 80.164062 105.328125 81.039062 102.191406 Z M 90.207031 65.898438 C 91.265625 62.125 92.238281 57.191406 93.203125 53.324219 L 93.402344 53.324219 C 94.367188 57.191406 95.535156 62.03125 96.683594 65.898438 L 100.75 79.730469 L 86.332031 79.730469 Z M 90.207031 65.898438 "/>
<path style=" stroke:none;fill-rule:nonzero;fill:rgb(0%,0%,0%);fill-opacity:1;" d="M 202.621094 99.964844 L 199.835938 49.046875 C 199.625 45.261719 196.488281 42.296875 192.695312 42.296875 L 185.414062 42.296875 C 182.3125 42.296875 179.5625 44.296875 178.609375 47.25 L 173.242188 63.964844 C 171.109375 71.21875 168.890625 79.832031 167.050781 87.375 L 166.757812 87.375 C 165.3125 79.730469 163.28125 71.605469 161.242188 64.0625 L 156.375 47.429688 C 155.484375 44.386719 152.6875 42.296875 149.519531 42.296875 L 141.921875 42.296875 C 138.160156 42.296875 135.039062 45.226562 134.796875 48.984375 L 131.519531 100.316406 C 131.402344 102.175781 132.0625 104.007812 133.335938 105.367188 C 134.605469 106.726562 136.394531 107.5 138.261719 107.5 C 141.863281 107.5 144.832031 104.664062 145 101.0625 L 145.867188 82.734375 C 146.347656 74.609375 146.640625 64.546875 147.03125 55.742188 L 147.222656 55.742188 C 148.769531 64.253906 150.992188 73.539062 153.113281 81.183594 L 159.601562 104.6875 C 159.886719 105.722656 160.824219 106.4375 161.898438 106.4375 L 169.835938 106.4375 C 170.886719 106.4375 171.800781 105.757812 172.117188 104.765625 L 179.523438 80.992188 C 182.046875 73.351562 184.757812 64.0625 186.789062 55.742188 L 187.078125 55.742188 C 187.078125 65.222656 187.363281 74.699219 187.660156 82.539062 L 188.351562 100.628906 C 188.503906 104.464844 191.65625 107.5 195.492188 107.5 C 197.457031 107.5 199.328125 106.691406 200.683594 105.261719 C 202.03125 103.839844 202.730469 101.921875 202.621094 99.964844 Z M 202.621094 99.964844 "/>
<path style=" stroke:none;fill-rule:nonzero;fill:rgb(0%,0%,0%);fill-opacity:1;" d="M 249.953125 95.402344 L 229.199219 95.402344 L 229.199219 79.925781 L 247.195312 79.925781 C 250.507812 79.925781 253.195312 77.238281 253.195312 73.925781 C 253.195312 73.925781 250.507812 67.925781 247.195312 67.925781 L 229.199219 67.925781 L 229.199219 54.390625 L 248.601562 54.390625 C 251.949219 54.390625 254.652344 51.679688 254.652344 48.339844 C 254.652344 45.003906 251.949219 42.296875 248.601562 42.296875 L 220.445312 42.296875 C 217.101562 42.296875 214.398438 45.003906 214.398438 48.339844 L 214.398438 101.453125 C 214.398438 104.789062 217.101562 107.496094 220.445312 107.496094 L 249.953125 107.496094 C 253.296875 107.496094 256 104.789062 256 101.453125 C 256 98.113281 253.296875 95.402344 249.953125 95.402344 Z M 249.953125 95.402344 "/>
<path style=" stroke:none;fill-rule:nonzero;fill:rgb(0%,0%,0%);fill-opacity:1;" d="M 43.585938 147.050781 C 24.332031 147.050781 11.859375 161.65625 11.859375 181.199219 C 11.859375 199.769531 23.183594 214.382812 42.523438 214.382812 C 61.585938 214.382812 74.546875 201.417969 74.546875 180.039062 C 74.546875 162.046875 63.613281 147.050781 43.585938 147.050781 Z M 43.296875 202.675781 C 33.425781 202.675781 27.4375 193.679688 27.4375 180.90625 C 27.4375 168.238281 33.234375 158.757812 43.203125 158.757812 C 53.363281 158.757812 58.972656 168.8125 58.972656 180.519531 C 58.972656 193.195312 53.273438 202.675781 43.296875 202.675781 Z M 43.296875 202.675781 "/>
<path style=" stroke:none;fill-rule:nonzero;fill:rgb(0%,0%,0%);fill-opacity:1;" d="M 127.933594 148.113281 C 124.691406 148.113281 121.835938 150.246094 120.902344 153.351562 L 114.15625 175.972656 C 111.925781 183.425781 109.886719 191.167969 108.246094 199 L 107.964844 199 C 106.410156 190.871094 104.378906 183.425781 102.148438 175.6875 L 95.800781 153.617188 C 94.867188 150.363281 91.878906 148.113281 88.484375 148.113281 C 86.054688 148.113281 83.777344 149.277344 82.34375 151.238281 C 80.914062 153.203125 80.496094 155.734375 81.246094 158.046875 L 97.332031 208.21875 C 98.304688 211.257812 101.125 213.316406 104.3125 213.316406 L 110.910156 213.316406 C 114.054688 213.316406 116.851562 211.304688 117.859375 208.324219 L 134.882812 157.792969 C 135.640625 155.554688 135.265625 153.089844 133.890625 151.167969 C 132.511719 149.25 130.296875 148.113281 127.933594 148.113281 Z M 127.933594 148.113281 "/>
<path style=" stroke:none;fill-rule:nonzero;fill:rgb(0%,0%,0%);fill-opacity:1;" d="M 180.6875 201.222656 L 159.945312 201.222656 L 159.945312 185.746094 L 177.933594 185.746094 C 181.246094 185.746094 183.933594 183.058594 183.933594 179.746094 C 183.933594 179.746094 181.246094 173.746094 177.933594 173.746094 L 159.945312 173.746094 L 159.945312 160.210938 L 179.339844 160.210938 C 182.6875 160.210938 185.390625 157.5 185.390625 154.164062 C 185.390625 150.824219 182.6875 148.117188 179.339844 148.117188 L 152.449219 148.117188 C 148.410156 148.117188 145.140625 151.390625 145.140625 155.425781 L 145.140625 206.007812 C 145.140625 210.042969 148.410156 213.316406 152.449219 213.316406 L 180.6875 213.316406 C 184.035156 213.316406 186.738281 210.609375 186.738281 207.273438 C 186.738281 203.929688 184.035156 201.222656 180.6875 201.222656 Z M 180.6875 201.222656 "/>
<path style=" stroke:none;fill-rule:nonzero;fill:rgb(0%,0%,0%);fill-opacity:1;" d="M 243.558594 166.398438 C 243.558594 160.402344 241.429688 155.851562 237.5625 152.757812 C 232.917969 149.082031 226.136719 147.632812 216.46875 147.632812 C 211.742188 147.632812 207.304688 147.839844 203.488281 148.179688 C 199.710938 148.511719 196.820312 151.675781 196.820312 155.460938 L 196.820312 206.007812 C 196.820312 210.042969 200.089844 213.316406 204.136719 213.316406 C 208.171875 213.316406 211.441406 210.042969 211.441406 206.007812 L 211.441406 187.679688 L 215.894531 187.679688 C 221.882812 187.777344 224.6875 190.003906 226.433594 198.128906 C 227.410156 202.171875 228.28125 205.523438 229.046875 208.097656 C 229.972656 211.195312 232.816406 213.316406 236.046875 213.316406 L 236.34375 213.316406 C 238.566406 213.316406 240.671875 212.277344 242.027344 210.511719 C 243.375 208.746094 243.835938 206.449219 243.261719 204.300781 C 242.460938 201.332031 241.613281 198.03125 240.753906 194.9375 C 239.109375 188.941406 236.59375 184.585938 232.042969 182.746094 L 232.042969 182.457031 C 237.652344 180.429688 243.558594 174.71875 243.558594 166.398438 Z M 217.242188 177.039062 L 211.441406 177.039062 L 211.441406 159.046875 C 212.5 158.855469 214.53125 158.5625 218.117188 158.5625 C 224.878906 158.660156 228.949219 161.65625 228.949219 167.65625 C 228.949219 173.359375 224.597656 177.039062 217.242188 177.039062 Z M 217.242188 177.039062 "/>
</g>
</svg>
