<?xml version="1.0" encoding="UTF-8"?>
<svg xmlns="http://www.w3.org/2000/svg" xmlns:xlink="http://www.w3.org/1999/xlink" width="256pt" height="256pt" viewBox="0 0 256 256" version="1.1">
<g id="surface1">
<path style=" stroke:none;fill-rule:nonzero;fill:rgb(0%,0%,0%);fill-opacity:1;" d="M 177.777344 0 L 49.042969 0 C 40.402344 0 33.363281 7.042969 33.363281 15.6875 L 33.363281 240.085938 C 33.363281 248.742188 40.402344 255.773438 49.042969 255.773438 L 206.730469 255.773438 C 215.378906 255.773438 222.414062 248.742188 222.414062 240.085938 L 222.414062 48.5 Z M 181.476562 23.472656 L 201.042969 44.734375 L 181.476562 44.734375 Z M 209.242188 240.085938 C 209.242188 241.46875 208.109375 242.601562 206.722656 242.601562 L 49.042969 242.601562 C 47.660156 242.601562 46.535156 241.46875 46.535156 240.085938 L 46.535156 15.6875 C 46.535156 14.300781 47.660156 13.179688 49.042969 13.179688 L 168.300781 13.179688 L 168.300781 51.324219 C 168.300781 54.957031 171.257812 57.898438 174.890625 57.898438 L 209.242188 57.898438 Z M 69.769531 70.054688 L 181.617188 70.054688 C 184.34375 70.054688 186.554688 72.265625 186.554688 74.988281 C 186.554688 77.714844 184.34375 79.925781 181.617188 79.925781 L 69.769531 79.925781 C 67.042969 79.925781 64.835938 77.714844 64.835938 74.988281 C 64.835938 72.265625 67.042969 70.054688 69.769531 70.054688 Z M 186.554688 108.152344 C 186.554688 110.875 184.34375 113.085938 181.617188 113.085938 L 69.769531 113.085938 C 67.042969 113.085938 64.835938 110.875 64.835938 108.152344 C 64.835938 105.425781 67.042969 103.214844 69.769531 103.214844 L 181.617188 103.214844 C 184.34375 103.214844 186.554688 105.425781 186.554688 108.152344 Z M 186.554688 140.226562 C 186.554688 142.949219 184.34375 145.160156 181.617188 145.160156 L 69.769531 145.160156 C 67.042969 145.160156 64.835938 142.949219 64.835938 140.226562 C 64.835938 137.5 67.042969 135.289062 69.769531 135.289062 L 181.617188 135.289062 C 184.34375 135.289062 186.554688 137.5 186.554688 140.226562 Z M 186.554688 172.847656 C 186.554688 175.570312 184.34375 177.78125 181.617188 177.78125 L 69.769531 177.78125 C 67.042969 177.78125 64.835938 175.570312 64.835938 172.847656 C 64.835938 170.121094 67.042969 167.910156 69.769531 167.910156 L 181.617188 167.910156 C 184.34375 167.910156 186.554688 170.121094 186.554688 172.847656 Z M 186.554688 172.847656 "/>
</g>
</svg>
