<?xml version="1.0" encoding="UTF-8"?>
<svg xmlns="http://www.w3.org/2000/svg" xmlns:xlink="http://www.w3.org/1999/xlink" width="256pt" height="256pt" viewBox="0 0 256 256" version="1.1">
<g id="surface1">
<path style=" stroke:none;fill-rule:nonzero;fill:rgb(0%,0%,0%);fill-opacity:1;" d="M 218.5 36.039062 L 218.5 15 L 203.5 15 L 203.5 30 L 149.210938 30 C 150.042969 27.652344 150.5 25.128906 150.5 22.5 C 150.5 10.09375 140.40625 0 128 0 C 115.59375 0 105.5 10.09375 105.5 22.5 C 105.5 25.128906 105.957031 27.652344 106.789062 30 L 52.5 30 L 52.5 15 L 37.5 15 L 37.5 36.039062 L 0 128.539062 L 0 130 C 0 154.8125 20.1875 175 45 175 C 69.8125 175 90 154.8125 90 130 L 90 128.539062 L 56.132812 45 L 83.628906 45 C 85.890625 58.433594 94.125 69.863281 105.5 76.460938 L 105.5 181 L 97.5 181 C 80.957031 181 67.5 194.457031 67.5 211 C 50.957031 211 37.5 224.457031 37.5 241 L 22.5 241 L 22.5 256 L 233.5 256 L 233.5 241 L 218.5 241 C 218.5 224.457031 205.042969 211 188.5 211 C 188.5 194.457031 175.042969 181 158.5 181 L 150.5 181 L 150.5 76.460938 C 161.875 69.863281 170.109375 58.433594 172.371094 45 L 199.867188 45 L 166 128.539062 L 166 130 C 166 154.8125 186.1875 175 211 175 C 235.8125 175 256 154.8125 256 130 L 256 128.539062 Z M 45 160 C 31.046875 160 19.296875 150.421875 15.957031 137.5 L 74.042969 137.5 C 70.703125 150.421875 58.953125 160 45 160 Z M 71.367188 122.5 L 18.632812 122.5 L 45 57.460938 Z M 128 15 C 132.136719 15 135.5 18.363281 135.5 22.5 C 135.5 26.636719 132.136719 30 128 30 C 123.863281 30 120.5 26.636719 120.5 22.5 C 120.5 18.363281 123.863281 15 128 15 Z M 188.5 226 C 196.769531 226 203.5 232.730469 203.5 241 L 52.5 241 C 52.5 232.730469 59.230469 226 67.5 226 Z M 158.5 196 C 166.769531 196 173.5 202.730469 173.5 211 L 82.5 211 C 82.5 202.730469 89.230469 196 97.5 196 Z M 120.5 181 L 120.5 81.871094 C 122.941406 82.28125 125.445312 82.5 128 82.5 C 130.554688 82.5 133.058594 82.28125 135.5 81.871094 L 135.5 181 Z M 128 67.5 C 114.046875 67.5 102.289062 57.925781 98.949219 45 L 157.050781 45 C 153.710938 57.925781 141.953125 67.5 128 67.5 Z M 211 57.460938 L 237.367188 122.5 L 184.632812 122.5 Z M 211 160 C 197.046875 160 185.296875 150.421875 181.957031 137.5 L 240.042969 137.5 C 236.703125 150.421875 224.953125 160 211 160 Z M 211 160 "/>
</g>
</svg>
