<?xml version="1.0" encoding="UTF-8"?>
<svg xmlns="http://www.w3.org/2000/svg" xmlns:xlink="http://www.w3.org/1999/xlink" width="256pt" height="256pt" viewBox="0 0 256 256" version="1.1">
<g id="surface1">
<path style=" stroke:none;fill-rule:nonzero;fill:rgb(0%,0%,0%);fill-opacity:1;" d="M 78.625 153.3125 L 120.667969 136.097656 C 120.515625 129.679688 120.308594 124.082031 120.132812 120.1875 C 115.238281 124.308594 111.316406 127.460938 109.199219 128.878906 C 101.28125 134.167969 80.886719 141.597656 70.597656 145.183594 C 58.410156 137.304688 40.640625 140.214844 28.832031 152.777344 C 15.917969 166.507812 14.800781 186.3125 26.28125 197.851562 C 26.484375 198.066406 26.703125 198.261719 26.910156 198.472656 C 38.921875 209.757812 59.328125 207.628906 72.390625 193.71875 C 83.695312 181.683594 85.960938 165.019531 78.625 153.3125 Z M 32.8125 192.179688 L 32.390625 191.765625 C 24.339844 183.675781 25.558594 168.832031 35.105469 158.671875 C 44.921875 148.226562 59.867188 146.265625 68.40625 154.300781 L 68.832031 154.707031 C 76.890625 162.789062 75.660156 177.632812 66.113281 187.800781 C 56.300781 198.246094 41.359375 200.214844 32.8125 192.179688 Z M 32.8125 192.179688 "/>
<path style=" stroke:none;fill-rule:nonzero;fill:rgb(0%,0%,0%);fill-opacity:1;" d="M 137.285156 239.390625 C 146.617188 225.371094 145.917969 207.683594 135.621094 197.34375 C 135.480469 197.203125 135.324219 197.082031 135.183594 196.953125 C 134.785156 187.253906 135.097656 166.226562 142.761719 142.296875 C 143.933594 132.519531 212.601562 1.71875 212.601562 1.71875 L 207.847656 0 L 126.078125 115.597656 C 126.078125 115.597656 129.285156 169.019531 124.1875 190.675781 C 111.445312 187.074219 96.304688 193.058594 87.511719 206.273438 C 78.183594 220.292969 78.886719 237.96875 89.175781 248.3125 C 90.402344 249.550781 91.773438 250.671875 93.230469 251.636719 C 106.945312 260.777344 126.710938 255.277344 137.285156 239.390625 Z M 134.902344 121.925781 C 132.859375 119.878906 132.875 116.5625 134.917969 114.519531 C 136.972656 112.480469 140.285156 112.480469 142.332031 114.535156 C 144.371094 116.585938 144.363281 119.902344 142.316406 121.941406 C 140.261719 123.996094 136.941406 123.988281 134.902344 121.925781 Z M 97.996094 244.464844 C 97.015625 243.824219 96.097656 243.070312 95.28125 242.238281 C 87.863281 234.785156 87.617188 221.675781 94.6875 211.042969 C 102.625 199.117188 117.03125 194.691406 126.800781 201.195312 C 127.78125 201.847656 128.695312 202.601562 129.523438 203.417969 C 136.933594 210.871094 137.191406 223.988281 130.117188 234.613281 C 122.171875 246.554688 107.765625 250.964844 97.996094 244.464844 Z M 97.996094 244.464844 "/>
<path style=" stroke:none;fill-rule:nonzero;fill:rgb(0%,0%,0%);fill-opacity:1;" d="M 237.699219 20.070312 L 234.089844 16.445312 L 187.617188 59.898438 C 179.144531 76.441406 170.351562 93.816406 163.25 108.289062 Z M 237.699219 20.070312 "/>
</g>
</svg>
