<?xml version="1.0" encoding="utf-8"?>
<!-- Generator: Adobe Illustrator 16.0.0, SVG Export Plug-In . SVG Version: 6.00 Build 0)  -->
<!DOCTYPE svg PUBLIC "-//W3C//DTD SVG 1.1//EN" "http://www.w3.org/Graphics/SVG/1.1/DTD/svg11.dtd">
<svg version="1.1" id="Capa_1" xmlns="http://www.w3.org/2000/svg" xmlns:xlink="http://www.w3.org/1999/xlink" x="0px" y="0px"
	 width="150px" height="150px" viewBox="425 375 150 150" enable-background="new 425 375 150 150" xml:space="preserve">
<rect x="425" y="375.188" display="none" fill="#0068FF" width="150" height="150"/>
<path fill="#010002" d="M514.167,501.115c1.063-4.706,0.313-9.334-1.739-12.916c-1.348-3.45-4.722-9.167-6.478-14.071
	c-2.741-7.687-0.148-7.081,1.336-21.111c0.063-0.047,0.128-0.092,0.191-0.141c3.802-2.826,22.327-16.4,33.478-26.988
	c12.705-12.063,13.263-14.849,12.071-15.752l-44.521,28.958l4.618-52.906c-1.357-0.627-3.549,1.179-8.223,18.061
	c-4.101,14.825-7.364,37.553-8.071,42.237c-0.012,0.077-0.022,0.152-0.032,0.229c-11.678,7.907-9.926,9.91-17.997,11.105
	c-5.156,0.77-11.775,0.474-15.452,0.904c-4.137-0.119-8.571,1.389-12.222,4.539c-3.723,3.215-6.045,7.624-6.366,12.085
	c-0.267,3.582,0.799,6.953,2.984,9.483c5.087,5.882,14.49,5.316,21.823-0.215c4.685-3.531,11.246-17.075,15.187-20.88
	c2.631-2.548,7.947-4.536,12.646-6.149c0.787,4.902,1.537,10.549,0.519,14.076c-1.51,5.264-10.366,17.41-11.284,23.211
	c-1.428,9.066,2.496,17.643,10.079,19.365c3.26,0.739,6.737,0.1,9.777-1.823C510.278,510.022,513.077,505.909,514.167,501.115z
	 M466.33,480.889c-4.881,4.215-11.545,4.542-14.843,0.718c-1.35-1.548-1.967-3.581-1.797-5.884c0.236-3.178,1.938-6.347,4.669-8.708
	c4.881-4.217,11.542-4.538,14.84-0.714C472.508,470.118,471.214,476.664,466.33,480.889z M503.852,508.216
	c-1.95,1.232-4.036,1.644-6.033,1.185c-4.923-1.117-7.765-7.146-6.355-13.442c1.431-6.288,6.595-10.504,11.524-9.397
	c4.924,1.115,7.771,7.149,6.354,13.448C508.54,503.533,506.549,506.527,503.852,508.216z"/>
</svg>
