<?xml version="1.0" encoding="UTF-8"?>
<svg xmlns="http://www.w3.org/2000/svg" xmlns:xlink="http://www.w3.org/1999/xlink" width="256pt" height="256pt" viewBox="0 0 256 256" version="1.1">
<g id="surface1">
<path style=" stroke:none;fill-rule:nonzero;fill:rgb(0%,0%,0%);fill-opacity:1;" d="M 230.007812 122.410156 C 234.304688 118.761719 235.851562 112.8125 233.871094 107.535156 C 231.035156 101.628906 225.007812 97.929688 218.460938 98.0625 C 206.890625 98.0625 187.511719 118.425781 179.914062 129.816406 C 177.46875 133.519531 174.628906 136.949219 171.453125 140.054688 C 170.425781 141.027344 169.367188 141.953125 168.273438 142.839844 C 167.203125 143.691406 166.292969 144.328125 165.648438 144.746094 C 164.917969 144.410156 164.289062 143.894531 163.8125 143.246094 C 162.398438 141.390625 160.367188 136.492188 162.621094 124.636719 L 183.007812 37.101562 C 184.386719 31.070312 182.402344 24.765625 177.820312 20.609375 C 173.238281 16.453125 166.769531 15.09375 160.898438 17.054688 C 160.929688 8.402344 154.453125 1.105469 145.855469 0.113281 C 137.261719 -0.878906 129.292969 4.742188 127.347656 13.175781 L 105.808594 106.171875 C 105.019531 109.949219 101.734375 112.691406 97.875 112.789062 C 94.058594 113.078125 90.554688 110.691406 89.421875 107.039062 L 63.65625 31.945312 C 60.9375 24.058594 52.914062 19.289062 44.6875 20.675781 C 36.460938 22.058594 30.441406 29.191406 30.457031 37.535156 C 30.453125 39.417969 30.761719 41.292969 31.375 43.078125 L 41.585938 72.78125 C 38.25 72.160156 34.800781 72.535156 31.675781 73.859375 C 23.378906 77.679688 19.390625 87.21875 22.5 95.808594 L 60.039062 204.660156 C 61.957031 209.785156 64.507812 214.648438 67.640625 219.132812 C 68.09375 219.835938 68.324219 220.660156 68.300781 221.496094 L 68.300781 243.101562 C 68.300781 250.171875 74.027344 255.898438 81.097656 255.898438 L 149.351562 255.898438 C 156.417969 255.898438 162.144531 250.171875 162.144531 243.101562 L 162.144531 241.523438 C 162.144531 233.515625 162.53125 225.8125 167.160156 219.570312 C 168.871094 217.394531 170.761719 215.367188 172.816406 213.507812 C 186.894531 200.050781 195.078125 182.769531 202.984375 166.046875 C 210.617188 149.859375 217.851562 134.574219 230.007812 122.410156 Z M 166.878906 207.367188 C 164.480469 209.550781 162.273438 211.9375 160.285156 214.496094 C 154.113281 222.816406 153.597656 232.410156 153.597656 241.523438 L 153.597656 243.101562 C 153.597656 245.457031 151.6875 247.367188 149.332031 247.367188 L 81.078125 247.367188 C 78.722656 247.367188 76.8125 245.457031 76.8125 243.101562 L 76.8125 221.476562 C 76.839844 218.90625 76.082031 216.390625 74.644531 214.265625 C 71.964844 210.417969 69.765625 206.253906 68.09375 201.871094 L 30.554688 93.011719 C 28.933594 88.644531 30.859375 83.761719 35.023438 81.679688 C 37.296875 80.714844 39.871094 80.769531 42.097656 81.828125 C 43.839844 82.707031 45.25 84.125 46.113281 85.875 C 46.195312 86 46.289062 86.121094 46.386719 86.238281 C 46.394531 86.40625 46.417969 86.578125 46.453125 86.746094 L 61.710938 131.339844 C 62.300781 133.066406 63.921875 134.222656 65.746094 134.222656 C 66.214844 134.222656 66.683594 134.144531 67.125 133.996094 C 68.195312 133.628906 69.078125 132.855469 69.578125 131.839844 C 70.074219 130.820312 70.148438 129.648438 69.785156 128.578125 L 54.527344 83.988281 C 54.402344 83.699219 54.242188 83.429688 54.054688 83.175781 C 54.042969 82.984375 54.015625 82.792969 53.976562 82.605469 L 39.414062 40.289062 C 37.882812 35.824219 40.261719 30.964844 44.722656 29.433594 C 49.1875 27.902344 54.046875 30.28125 55.578125 34.742188 L 81.339844 109.820312 C 83.8125 117.019531 90.761719 121.710938 98.363281 121.3125 C 105.964844 120.917969 112.386719 115.535156 114.101562 108.113281 L 135.644531 15.121094 C 136.222656 12.644531 137.871094 10.558594 140.144531 9.417969 C 142.398438 8.273438 145.050781 8.203125 147.367188 9.222656 C 151.214844 11.15625 153.175781 15.53125 152.058594 19.691406 L 150.054688 28.226562 L 127.410156 118.351562 C 126.835938 120.636719 128.21875 122.957031 130.503906 123.53125 C 130.847656 123.617188 131.203125 123.660156 131.554688 123.660156 C 133.511719 123.660156 135.214844 122.328125 135.691406 120.433594 L 158.316406 30.460938 C 159.792969 26.171875 164.371094 23.789062 168.734375 25.039062 C 173.09375 26.285156 175.714844 30.730469 174.695312 35.152344 L 154.273438 122.863281 C 151.988281 134.863281 153.039062 143.609375 157.386719 148.859375 C 157.480469 148.96875 157.574219 149.042969 157.664062 149.148438 C 155.730469 149.875 153.761719 150.480469 151.8125 151.0625 C 145.320312 152.78125 139.699219 156.847656 136.03125 162.476562 C 133.632812 166.160156 132.324219 170.449219 132.261719 174.84375 C 132.261719 177.199219 134.171875 179.109375 136.527344 179.109375 C 138.882812 179.109375 140.792969 177.199219 140.792969 174.84375 C 140.859375 172.058594 141.707031 169.34375 143.246094 167.015625 C 145.8125 163.136719 149.742188 160.359375 154.253906 159.230469 C 158.789062 158.050781 163.152344 156.289062 167.234375 153.992188 C 168.332031 153.328125 169.371094 152.539062 170.410156 151.800781 C 170.835938 151.523438 171.304688 151.195312 171.828125 150.820312 C 172.355469 150.445312 172.929688 150.011719 173.46875 149.582031 C 174.605469 148.679688 175.875 147.601562 177.261719 146.28125 L 177.335938 146.195312 C 177.578125 145.96875 177.84375 145.769531 178.082031 145.546875 C 178.230469 145.371094 178.363281 145.183594 178.480469 144.988281 C 181.648438 141.789062 184.503906 138.292969 187.011719 134.550781 C 195.71875 121.492188 212.472656 106.597656 218.460938 106.597656 C 221.550781 106.503906 224.445312 108.117188 225.992188 110.796875 C 226.683594 112.472656 225.992188 114.347656 223.976562 116.378906 C 210.75 129.601562 202.878906 146.269531 195.253906 162.402344 C 187.332031 179.152344 179.847656 194.980469 166.878906 207.367188 Z M 166.878906 207.367188 "/>
<path style=" stroke:none;fill-rule:nonzero;fill:rgb(0%,0%,0%);fill-opacity:1;" d="M 140.808594 221.773438 L 136.542969 221.773438 C 134.1875 221.773438 132.277344 223.683594 132.277344 226.039062 C 132.277344 228.394531 134.1875 230.304688 136.542969 230.304688 L 140.808594 230.304688 C 143.164062 230.304688 145.074219 228.394531 145.074219 226.039062 C 145.074219 223.683594 143.164062 221.773438 140.808594 221.773438 Z M 140.808594 221.773438 "/>
<path style=" stroke:none;fill-rule:nonzero;fill:rgb(0%,0%,0%);fill-opacity:1;" d="M 119.480469 221.773438 L 89.621094 221.773438 C 87.261719 221.773438 85.351562 223.683594 85.351562 226.039062 C 85.351562 228.394531 87.261719 230.304688 89.621094 230.304688 L 119.480469 230.304688 C 121.835938 230.304688 123.746094 228.394531 123.746094 226.039062 C 123.746094 223.683594 121.835938 221.773438 119.480469 221.773438 Z M 119.480469 221.773438 "/>
</g>
</svg>
