<?xml version="1.0" encoding="utf-8"?>
<!-- Generator: Adobe Illustrator 16.0.0, SVG Export Plug-In . SVG Version: 6.00 Build 0)  -->
<!DOCTYPE svg PUBLIC "-//W3C//DTD SVG 1.1//EN" "http://www.w3.org/Graphics/SVG/1.1/DTD/svg11.dtd">
<svg version="1.1" id="Capa_1" xmlns="http://www.w3.org/2000/svg" xmlns:xlink="http://www.w3.org/1999/xlink" x="0px" y="0px"
	 width="150px" height="150px" viewBox="425 375 150 150" enable-background="new 425 375 150 150" xml:space="preserve">
<rect x="425" y="375.188" display="none" fill="#0068FF" width="150" height="150"/>
<g>
	<path fill="#FFDCBB" d="M547.672,429.375l-8.15,10.188c-3.457-29.546-19.908-51.938-39.695-51.938
		c-19.291,0-35.412,21.285-39.412,49.734l-8.086-10.108c-0.773,29.395,6.826,43.673,10.31,48.636
		c6.136,22.767,20.477,38.738,37.188,38.738c15.682,0,29.264-14.069,35.951-34.61C536.965,478.757,548.621,465.446,547.672,429.375z
		"/>
	<path fill="#8A5603" d="M465.827,469.054l-2.25-27.471l-6.75-8.811c0,0,7-46.646,43.499-46.646c36.5,0,42.5,48.72,42.5,48.72
		l-4.75,6.737l-2.75,29.543l-4.75-42.242h-60.999L465.827,469.054z"/>
</g>
</svg>
