<?xml version="1.0" encoding="UTF-8"?>
<svg xmlns="http://www.w3.org/2000/svg" xmlns:xlink="http://www.w3.org/1999/xlink" width="256pt" height="256pt" viewBox="0 0 256 256" version="1.1">
<g id="surface1">
<path style=" stroke:none;fill-rule:nonzero;fill:rgb(0%,0%,0%);fill-opacity:1;" d="M 256.886719 77.246094 C 256.886719 77.214844 256.890625 77.183594 256.890625 77.152344 L 257.820312 28.609375 C 257.871094 25.964844 256.105469 23.628906 253.550781 22.957031 L 197.816406 8.292969 C 197.804688 8.289062 197.796875 8.289062 197.785156 8.285156 L 197.742188 8.273438 C 197.722656 8.269531 197.703125 8.269531 197.6875 8.265625 C 197.472656 8.210938 197.25 8.167969 197.023438 8.140625 C 196.957031 8.132812 196.894531 8.125 196.828125 8.117188 C 196.769531 8.113281 196.714844 8.101562 196.660156 8.097656 C 196.488281 8.085938 196.320312 8.085938 196.144531 8.089844 C 196.121094 8.089844 196.097656 8.089844 196.074219 8.089844 C 195.835938 8.097656 195.597656 8.128906 195.359375 8.167969 C 195.289062 8.179688 195.214844 8.195312 195.148438 8.207031 C 194.941406 8.25 194.742188 8.296875 194.550781 8.363281 C 194.515625 8.375 194.484375 8.375 194.449219 8.386719 L 122.113281 32.832031 L 92.078125 36.476562 C 90.90625 36.621094 89.808594 37.121094 88.929688 37.914062 L 8.304688 110.828125 C 6.964844 112.035156 6.273438 113.808594 6.445312 115.605469 L 9.324219 146.820312 L 4.621094 212.125 C 4.621094 212.164062 4.625 212.195312 4.621094 212.234375 C 4.613281 212.425781 4.613281 212.613281 4.621094 212.800781 C 4.621094 212.863281 4.625 212.921875 4.632812 212.980469 C 4.648438 213.207031 4.675781 213.441406 4.71875 213.667969 C 4.730469 213.699219 4.738281 213.726562 4.746094 213.761719 C 4.789062 213.960938 4.84375 214.152344 4.910156 214.347656 C 4.929688 214.402344 4.949219 214.457031 4.964844 214.511719 C 5.035156 214.710938 5.117188 214.898438 5.210938 215.089844 C 5.222656 215.109375 5.226562 215.136719 5.242188 215.152344 C 5.347656 215.363281 5.472656 215.5625 5.601562 215.757812 C 5.632812 215.804688 5.667969 215.847656 5.699219 215.894531 C 5.804688 216.035156 5.914062 216.175781 6.03125 216.308594 C 6.082031 216.363281 6.132812 216.425781 6.183594 216.476562 C 6.21875 216.515625 6.25 216.554688 6.285156 216.589844 C 6.386719 216.6875 6.492188 216.777344 6.597656 216.867188 C 6.632812 216.898438 6.660156 216.929688 6.695312 216.960938 C 6.882812 217.109375 7.074219 217.246094 7.273438 217.375 C 7.289062 217.386719 7.304688 217.398438 7.320312 217.410156 L 60.253906 250.230469 C 60.28125 250.25 60.3125 250.261719 60.347656 250.28125 C 60.515625 250.378906 60.691406 250.472656 60.867188 250.550781 C 60.914062 250.578125 60.964844 250.601562 61.011719 250.621094 C 61.226562 250.714844 61.449219 250.796875 61.675781 250.859375 C 61.714844 250.871094 61.746094 250.875 61.777344 250.886719 C 61.972656 250.9375 62.175781 250.980469 62.375 251.011719 C 62.4375 251.023438 62.503906 251.03125 62.570312 251.042969 C 62.796875 251.066406 63.015625 251.089844 63.246094 251.089844 C 63.253906 251.089844 63.265625 251.089844 63.269531 251.089844 C 63.441406 251.089844 63.617188 251.082031 63.789062 251.066406 L 136.347656 244.472656 C 136.351562 244.46875 136.359375 244.46875 136.363281 244.46875 C 136.5625 244.449219 136.757812 244.421875 136.957031 244.382812 C 136.992188 244.375 137.023438 244.363281 137.0625 244.355469 C 137.214844 244.320312 137.375 244.28125 137.527344 244.230469 C 137.582031 244.21875 137.628906 244.195312 137.683594 244.179688 C 137.816406 244.132812 137.949219 244.085938 138.085938 244.03125 C 138.136719 244.003906 138.195312 243.980469 138.25 243.949219 C 138.375 243.898438 138.492188 243.832031 138.609375 243.769531 C 138.671875 243.734375 138.730469 243.703125 138.792969 243.660156 C 138.898438 243.601562 139.003906 243.535156 139.105469 243.460938 C 139.171875 243.410156 139.238281 243.367188 139.300781 243.316406 C 139.390625 243.246094 139.476562 243.175781 139.566406 243.101562 C 139.636719 243.039062 139.703125 242.980469 139.769531 242.917969 C 139.808594 242.882812 139.84375 242.855469 139.882812 242.816406 C 139.925781 242.773438 139.960938 242.730469 140 242.683594 C 140.0625 242.621094 140.125 242.550781 140.183594 242.480469 C 140.261719 242.394531 140.332031 242.300781 140.402344 242.207031 C 140.433594 242.167969 140.46875 242.128906 140.496094 242.089844 L 255.828125 80.375 C 255.835938 80.363281 255.84375 80.351562 255.847656 80.34375 C 255.894531 80.28125 255.933594 80.21875 255.976562 80.152344 C 256.019531 80.085938 256.0625 80.023438 256.101562 79.953125 C 256.140625 79.882812 256.179688 79.8125 256.21875 79.742188 C 256.257812 79.675781 256.289062 79.605469 256.324219 79.535156 C 256.359375 79.464844 256.390625 79.394531 256.421875 79.320312 C 256.460938 79.246094 256.488281 79.164062 256.515625 79.085938 C 256.542969 79.019531 256.566406 78.953125 256.59375 78.886719 C 256.636719 78.757812 256.671875 78.628906 256.710938 78.5 C 256.714844 78.472656 256.722656 78.445312 256.730469 78.414062 C 256.769531 78.265625 256.796875 78.113281 256.820312 77.960938 C 256.824219 77.945312 256.828125 77.929688 256.828125 77.914062 C 256.835938 77.882812 256.835938 77.851562 256.839844 77.820312 C 256.859375 77.691406 256.871094 77.558594 256.882812 77.429688 C 256.878906 77.367188 256.882812 77.304688 256.886719 77.246094 Z M 245.5625 70.382812 L 238.039062 69.234375 C 234.910156 68.757812 231.984375 70.898438 231.503906 74.023438 C 231.027344 77.152344 233.171875 80.074219 236.296875 80.554688 L 241.097656 81.292969 L 135.097656 229.917969 L 110.953125 205.773438 L 142.769531 173.960938 C 143.308594 173.421875 143.738281 172.777344 144.023438 172.0625 L 170.714844 106.328125 L 195.21875 74.253906 L 217.050781 77.605469 C 217.34375 77.652344 217.636719 77.671875 217.925781 77.671875 C 220.707031 77.671875 223.148438 75.644531 223.578125 72.8125 C 224.0625 69.683594 221.914062 66.761719 218.785156 66.28125 L 198.789062 63.210938 L 201.554688 21.121094 L 246.285156 32.890625 Z M 19.5 211.472656 L 93.09375 137.875 L 94.167969 141.457031 C 94.90625 143.941406 97.183594 145.554688 99.652344 145.554688 C 100.195312 145.554688 100.746094 145.476562 101.292969 145.316406 C 104.324219 144.414062 106.050781 141.21875 105.144531 138.191406 L 102.914062 130.691406 L 155.683594 112.878906 L 133.84375 166.679688 L 118.28125 182.242188 L 110.707031 156.851562 C 109.804688 153.820312 106.617188 152.09375 103.582031 153 C 100.546875 153.90625 98.824219 157.09375 99.730469 160.125 L 109.066406 191.453125 L 98.800781 201.722656 L 98.800781 201.726562 L 62.429688 238.089844 Z M 102.847656 213.878906 L 123.128906 234.160156 L 78.507812 238.21875 Z M 95.269531 47.628906 L 114.292969 45.320312 L 106.582031 63.699219 L 67.054688 96.367188 C 64.617188 98.382812 64.269531 101.992188 66.289062 104.433594 C 67.421875 105.804688 69.0625 106.511719 70.707031 106.511719 C 71.992188 106.511719 73.285156 106.082031 74.351562 105.199219 L 114.96875 71.632812 C 115.679688 71.042969 116.242188 70.285156 116.601562 69.433594 L 127.671875 43.042969 L 190.011719 21.980469 L 187.125 65.972656 L 162.203125 98.585938 L 94.007812 121.601562 C 93.960938 121.617188 93.914062 121.640625 93.867188 121.65625 C 93.738281 121.703125 93.617188 121.75 93.496094 121.804688 C 93.429688 121.835938 93.367188 121.867188 93.300781 121.898438 C 93.167969 121.960938 93.046875 122.03125 92.921875 122.101562 C 92.867188 122.136719 92.816406 122.167969 92.761719 122.199219 C 92.625 122.289062 92.496094 122.378906 92.367188 122.476562 C 92.332031 122.503906 92.292969 122.53125 92.257812 122.5625 C 92.085938 122.695312 91.925781 122.839844 91.769531 122.996094 L 17.15625 197.613281 L 20.613281 149.613281 L 59.335938 117.605469 C 61.777344 115.589844 62.121094 111.980469 60.105469 109.539062 C 58.085938 107.101562 54.476562 106.757812 52.035156 108.777344 L 19.777344 135.433594 L 18.113281 117.398438 Z M 95.269531 47.628906 "/>
</g>
</svg>
