<?xml version="1.0" encoding="UTF-8"?>
<svg xmlns="http://www.w3.org/2000/svg" xmlns:xlink="http://www.w3.org/1999/xlink" width="256pt" height="256pt" viewBox="0 0 256 256" version="1.1">
<g id="surface1">
<path style=" stroke:none;fill-rule:nonzero;fill:rgb(0%,0%,0.392157%);fill-opacity:1;" d="M 90.898438 218.066406 L 90.78125 218.066406 C 88.019531 218.066406 85.78125 220.304688 85.78125 223.066406 C 85.78125 225.824219 88.019531 228.066406 90.78125 228.066406 L 90.898438 228.066406 C 93.660156 228.066406 95.898438 225.824219 95.898438 223.066406 C 95.898438 220.304688 93.660156 218.066406 90.898438 218.066406 Z M 90.898438 218.066406 "/>
<path style=" stroke:none;fill-rule:nonzero;fill:rgb(0%,0%,0.392157%);fill-opacity:1;" d="M 76.414062 218.0625 L 50.898438 218.0625 C 48.136719 218.0625 45.898438 220.300781 45.898438 223.0625 C 45.898438 225.824219 48.136719 228.0625 50.898438 228.0625 L 76.414062 228.0625 C 79.175781 228.0625 81.414062 225.824219 81.414062 223.0625 C 81.414062 220.300781 79.175781 218.0625 76.414062 218.0625 Z M 76.414062 218.0625 "/>
<path style=" stroke:none;fill-rule:nonzero;fill:rgb(0%,0%,0.392157%);fill-opacity:1;" d="M 192 37.9375 L 192.246094 37.9375 C 195.007812 37.9375 197.246094 35.695312 197.246094 32.9375 C 197.246094 30.175781 195.007812 27.9375 192.246094 27.9375 L 192 27.9375 C 189.238281 27.9375 187 30.175781 187 32.9375 C 187 35.695312 189.238281 37.9375 192 37.9375 Z M 192 37.9375 "/>
<path style=" stroke:none;fill-rule:nonzero;fill:rgb(0%,0%,0.392157%);fill-opacity:1;" d="M 206.289062 38.839844 C 216.332031 40.144531 225.960938 42.863281 234.902344 46.921875 C 235.574219 47.226562 236.273438 47.371094 236.96875 47.371094 C 238.867188 47.371094 240.6875 46.28125 241.523438 44.4375 C 242.664062 41.925781 241.554688 38.960938 239.039062 37.820312 C 229.191406 33.347656 218.605469 30.351562 207.574219 28.925781 C 204.839844 28.566406 202.328125 30.503906 201.972656 33.242188 C 201.617188 35.980469 203.550781 38.488281 206.289062 38.839844 Z M 206.289062 38.839844 "/>
<path style=" stroke:none;fill-rule:nonzero;fill:rgb(0%,0%,0.392157%);fill-opacity:1;" d="M 242.144531 125.605469 C 234.238281 118.773438 222.984375 113.714844 205.628906 109.191406 C 179.96875 102.621094 177.679688 100.136719 177.679688 94.71875 L 177.679688 94.300781 C 177.679688 89.554688 183.136719 86.492188 191.578125 86.492188 C 202.183594 86.492188 213.753906 90.941406 226.945312 100.085938 C 228.035156 100.84375 229.386719 101.136719 230.691406 100.898438 C 231.996094 100.660156 233.15625 99.910156 233.910156 98.816406 L 250.707031 74.460938 C 252.195312 72.304688 251.765625 69.363281 249.71875 67.722656 C 233.367188 54.59375 213.945312 47.9375 192 47.9375 C 178.214844 47.9375 166.160156 51.421875 156.765625 57.574219 L 157.035156 56.898438 C 157.65625 55.355469 157.46875 53.609375 156.539062 52.234375 C 155.609375 50.859375 154.058594 50.035156 152.398438 50.035156 L 117.542969 50.035156 C 115.453125 50.035156 113.582031 51.335938 112.855469 53.296875 L 79.117188 144.183594 L 45.378906 53.296875 C 44.652344 51.335938 42.785156 50.035156 40.691406 50.035156 L 5 50.035156 C 3.339844 50.035156 1.789062 50.859375 0.859375 52.234375 C -0.0703125 53.609375 -0.257812 55.355469 0.359375 56.898438 L 59.78125 204.925781 C 60.539062 206.820312 62.378906 208.0625 64.417969 208.0625 L 92.976562 208.0625 C 95.019531 208.0625 96.855469 206.820312 97.617188 204.925781 L 108.953125 176.6875 C 116.394531 184.742188 126.933594 189.890625 138.660156 190.234375 C 155.34375 202.417969 176.003906 209.113281 197.039062 209.113281 C 214.101562 209.113281 228.632812 204.632812 239.0625 196.15625 C 250.144531 187.152344 256 174.148438 256 158.550781 L 256 158.128906 C 256 144.304688 251.46875 133.664062 242.144531 125.605469 Z M 89.59375 198.0625 L 67.800781 198.0625 L 12.394531 60.035156 L 37.214844 60.035156 L 74.429688 160.289062 C 75.160156 162.25 77.027344 163.550781 79.117188 163.550781 C 81.210938 163.550781 83.078125 162.25 83.804688 160.289062 L 121.019531 60.035156 L 145 60.035156 L 125.550781 108.492188 C 118.578125 111.023438 112.460938 115.355469 107.75 120.914062 C 107.605469 121.054688 107.464844 121.207031 107.332031 121.371094 C 107.242188 121.484375 107.160156 121.601562 107.082031 121.71875 C 101.257812 128.949219 97.757812 138.132812 97.757812 148.117188 C 97.757812 154.828125 99.34375 161.171875 102.144531 166.808594 Z M 167.816406 132.199219 C 170.507812 136.898438 172.054688 142.328125 172.054688 148.117188 C 172.054688 153.90625 170.507812 159.339844 167.816406 164.035156 C 164.175781 159.589844 162.148438 154.011719 162.148438 148.117188 C 162.148438 142.226562 164.175781 136.648438 167.816406 132.199219 Z M 181.988281 145.835938 C 183.855469 146.351562 185.851562 146.878906 188.027344 147.433594 C 213.875 154.0625 213.875 157.570312 213.875 161.28125 L 213.875 161.699219 C 213.875 169.917969 201.46875 170.554688 197.667969 170.554688 C 190.78125 170.554688 184.210938 169.285156 177.726562 166.691406 C 180.492188 161.085938 182.050781 154.78125 182.050781 148.117188 C 182.054688 147.351562 182.03125 146.59375 181.988281 145.835938 Z M 161.449219 171.953125 C 155.746094 177.117188 148.1875 180.265625 139.90625 180.265625 C 131.621094 180.265625 124.0625 177.117188 118.359375 171.953125 C 124.320312 165.507812 127.660156 157.070312 127.660156 148.117188 C 127.660156 139.164062 124.320312 130.730469 118.359375 124.28125 C 124.0625 119.121094 131.621094 115.972656 139.90625 115.972656 C 148.1875 115.972656 155.746094 119.121094 161.449219 124.28125 C 155.488281 130.730469 152.148438 139.164062 152.148438 148.117188 C 152.148438 157.074219 155.488281 165.507812 161.449219 171.953125 Z M 107.757812 148.117188 C 107.757812 142.328125 109.304688 136.898438 111.992188 132.199219 C 115.636719 136.648438 117.660156 142.226562 117.660156 148.117188 C 117.660156 154.011719 115.636719 159.589844 111.992188 164.035156 C 109.304688 159.339844 107.757812 153.90625 107.757812 148.117188 Z M 246 158.550781 C 246 183.570312 227.238281 199.113281 197.039062 199.113281 C 181.78125 199.113281 166.75 195.203125 153.644531 187.953125 C 160.863281 185.457031 167.199219 181.054688 172.042969 175.34375 C 172.085938 175.300781 172.128906 175.253906 172.167969 175.210938 C 180.433594 178.800781 188.816406 180.554688 197.667969 180.554688 C 216.992188 180.554688 223.875 170.816406 223.875 161.699219 L 223.875 161.28125 C 223.875 148.46875 213.582031 143.664062 190.507812 137.746094 C 186.402344 136.699219 182.964844 135.753906 179.894531 134.832031 C 178.289062 130.015625 175.84375 125.585938 172.722656 121.714844 C 172.644531 121.597656 172.566406 121.484375 172.476562 121.371094 C 172.347656 121.207031 172.207031 121.058594 172.0625 120.914062 C 165.628906 113.324219 156.574219 108.027344 146.304688 106.457031 C 145.800781 103.71875 145.558594 100.71875 145.558594 97.238281 C 145.558594 73.730469 164.21875 57.9375 192 57.9375 C 209.972656 57.9375 226.019531 62.90625 239.761719 72.71875 L 228.46875 89.089844 C 215.203125 80.621094 203.09375 76.492188 191.578125 76.492188 C 175.070312 76.492188 167.679688 85.433594 167.679688 94.300781 L 167.679688 94.71875 C 167.679688 109.125 179.84375 112.910156 203.125 118.875 C 218.6875 122.929688 229.011719 127.472656 235.605469 133.171875 C 242.699219 139.304688 246 147.230469 246 158.128906 Z M 246 158.550781 "/>
</g>
</svg>
