<?xml version="1.0" encoding="UTF-8"?>
<svg xmlns="http://www.w3.org/2000/svg" xmlns:xlink="http://www.w3.org/1999/xlink" width="256pt" height="256pt" viewBox="0 0 256 256" version="1.1">
<g id="surface1">
<path style=" stroke:none;fill-rule:nonzero;fill:rgb(0%,0%,0%);fill-opacity:1;" d="M 164.035156 132.433594 C 166.835938 131.621094 173.398438 129.722656 176.449219 120.75 L 182.734375 102.269531 L 185.261719 103.128906 C 186.417969 103.519531 187.6875 102.898438 188.082031 101.738281 L 191.453125 91.824219 C 191.847656 90.667969 191.222656 89.398438 190.0625 89.003906 L 108.589844 61.300781 C 107.433594 60.910156 106.164062 61.535156 105.773438 62.691406 L 102.398438 72.605469 C 102.007812 73.761719 102.632812 75.03125 103.789062 75.425781 L 106.316406 76.285156 L 99.917969 95.101562 C 96.898438 103.988281 98.898438 106.988281 102.6875 111.527344 L 119.171875 131.269531 L 117.335938 136.671875 C 111.027344 138.042969 94.542969 141.632812 92.324219 142.277344 C 89.523438 143.085938 82.957031 144.984375 79.90625 153.957031 L 74.496094 169.871094 L 71.96875 169.011719 C 70.8125 168.617188 69.542969 169.242188 69.148438 170.398438 L 65.777344 180.3125 C 65.382812 181.472656 66.007812 182.738281 67.167969 183.132812 L 148.640625 210.835938 C 149.796875 211.230469 151.066406 210.605469 151.457031 209.449219 L 154.828125 199.535156 C 155.222656 198.375 154.597656 197.109375 153.441406 196.714844 L 150.914062 195.855469 L 156.4375 179.605469 C 159.457031 170.722656 157.460938 167.71875 153.667969 163.183594 L 137.183594 143.441406 L 139.019531 138.035156 C 145.328125 136.667969 161.8125 133.074219 164.035156 132.433594 Z M 129.601562 146.84375 L 147.53125 168.308594 C 148.90625 169.957031 149.632812 170.855469 149.832031 171.679688 C 150.070312 172.667969 149.753906 174.417969 148.863281 177.027344 L 143.339844 193.277344 L 82.070312 172.445312 L 87.480469 156.535156 C 89.1875 151.511719 92.285156 150.613281 94.542969 149.960938 C 96.3125 149.449219 111.476562 146.125 121.238281 144.011719 C 122.613281 143.714844 123.730469 142.71875 124.179688 141.390625 L 127.46875 131.714844 C 127.917969 130.394531 127.648438 128.9375 126.753906 127.867188 L 108.878906 106.464844 L 108.824219 106.398438 C 107.449219 104.75 106.722656 103.851562 106.523438 103.027344 C 106.289062 102.039062 106.601562 100.289062 107.492188 97.679688 L 113.890625 78.859375 L 175.160156 99.691406 L 168.875 118.175781 C 167.167969 123.199219 164.074219 124.09375 161.8125 124.75 C 160.046875 125.261719 144.878906 128.585938 135.117188 130.695312 C 133.746094 130.992188 132.628906 131.988281 132.175781 133.320312 L 128.886719 142.992188 C 128.4375 144.3125 128.710938 145.769531 129.601562 146.84375 Z M 129.601562 146.84375 "/>
<path style=" stroke:none;fill-rule:nonzero;fill:rgb(0%,0%,0%);fill-opacity:1;" d="M 178.007812 223.121094 C 176.21875 224.132812 174.375 225.105469 172.527344 226.003906 C 172.230469 226.148438 171.941406 226.308594 171.664062 226.480469 C 171.367188 226.585938 171.074219 226.703125 170.78125 226.839844 C 162.769531 230.574219 154.417969 233.203125 145.816406 234.730469 C 145.707031 234.746094 145.59375 234.75 145.484375 234.773438 C 143.457031 235.128906 141.390625 235.429688 139.347656 235.664062 C 139.328125 235.667969 139.304688 235.671875 139.28125 235.675781 C 135.53125 236.085938 131.742188 236.300781 127.910156 236.300781 C 83.734375 236.300781 46.0625 207.953125 32.105469 168.5 C 31.894531 167.898438 31.683594 167.296875 31.484375 166.695312 C 28.136719 156.632812 26.320312 145.882812 26.320312 134.710938 C 26.320312 123.515625 28.144531 112.738281 31.507812 102.660156 C 31.578125 102.441406 31.648438 102.222656 31.722656 102 C 31.925781 101.414062 32.132812 100.828125 32.34375 100.246094 C 32.441406 99.972656 32.542969 99.699219 32.644531 99.425781 C 44.242188 68.207031 70.773438 44.191406 103.511719 36.089844 C 103.53125 36.085938 103.554688 36.082031 103.574219 36.078125 C 104.058594 35.960938 104.546875 35.84375 105.035156 35.730469 C 105.089844 35.71875 105.140625 35.695312 105.195312 35.683594 C 112.335938 34.046875 119.765625 33.167969 127.382812 33.128906 L 127.472656 43.574219 C 127.5 46.816406 129.546875 47.75 132.019531 45.65625 L 154.082031 26.953125 C 156.554688 24.859375 156.527344 21.460938 154.019531 19.40625 L 131.644531 1.078125 C 129.136719 -0.976562 127.105469 -0.00390625 127.132812 3.238281 L 127.222656 13.660156 C 95.144531 13.839844 65.011719 26.40625 42.308594 49.109375 C 40.070312 51.347656 37.9375 53.65625 35.898438 56.03125 C 35.886719 56.046875 35.875 56.054688 35.863281 56.070312 C 35.789062 56.160156 35.714844 56.25 35.640625 56.335938 C 17.773438 77.308594 7.699219 103.441406 6.90625 131.167969 C 6.886719 131.382812 6.863281 131.597656 6.859375 131.816406 C 6.835938 132.742188 6.824219 133.683594 6.824219 134.613281 C 6.824219 136.136719 6.855469 137.683594 6.914062 139.207031 C 6.921875 139.382812 6.945312 139.558594 6.960938 139.734375 C 7.984375 164.996094 16.71875 188.878906 32.046875 208.664062 C 32.097656 208.730469 32.140625 208.804688 32.191406 208.871094 C 33.6875 210.804688 35.273438 212.71875 36.890625 214.558594 C 36.996094 214.675781 37.109375 214.78125 37.21875 214.890625 C 38.855469 216.742188 40.546875 218.550781 42.308594 220.3125 C 60.28125 238.285156 82.914062 249.90625 107.480469 254.058594 C 107.554688 254.070312 107.632812 254.085938 107.707031 254.101562 C 107.761719 254.109375 107.816406 254.113281 107.871094 254.121094 C 114.433594 255.207031 121.128906 255.769531 127.910156 255.769531 C 145.757812 255.769531 162.949219 251.972656 179.007812 244.484375 C 179.351562 244.324219 179.683594 244.140625 180 243.945312 C 180.359375 243.820312 180.710938 243.675781 181.058594 243.503906 C 183.265625 242.429688 185.464844 241.273438 187.597656 240.066406 C 192.277344 237.414062 193.921875 231.476562 191.273438 226.796875 C 188.625 222.117188 182.683594 220.472656 178.007812 223.121094 Z M 178.007812 223.121094 "/>
<path style=" stroke:none;fill-rule:nonzero;fill:rgb(0%,0%,0%);fill-opacity:1;" d="M 212.265625 78.050781 C 214.144531 80.847656 217.222656 82.355469 220.355469 82.355469 C 222.222656 82.355469 224.109375 81.820312 225.777344 80.699219 C 230.238281 77.703125 231.425781 71.652344 228.425781 67.191406 C 227.058594 65.15625 225.609375 63.136719 224.117188 61.191406 C 220.851562 56.921875 214.742188 56.109375 210.472656 59.375 C 206.203125 62.640625 205.390625 68.75 208.660156 73.019531 C 209.90625 74.652344 211.121094 76.347656 212.265625 78.050781 Z M 212.265625 78.050781 "/>
<path style=" stroke:none;fill-rule:nonzero;fill:rgb(0%,0%,0%);fill-opacity:1;" d="M 224.628906 103.617188 C 225.253906 105.570312 225.832031 107.574219 226.339844 109.574219 C 227.460938 113.976562 231.421875 116.90625 235.765625 116.90625 C 236.5625 116.90625 237.371094 116.808594 238.179688 116.601562 C 243.386719 115.273438 246.535156 109.976562 245.207031 104.765625 C 244.601562 102.386719 243.917969 100.003906 243.171875 97.675781 C 241.53125 92.558594 236.050781 89.734375 230.933594 91.375 C 225.8125 93.015625 222.988281 98.496094 224.628906 103.617188 Z M 224.628906 103.617188 "/>
<path style=" stroke:none;fill-rule:nonzero;fill:rgb(0%,0%,0%);fill-opacity:1;" d="M 218.429688 200.238281 C 214.359375 196.722656 208.214844 197.167969 204.699219 201.234375 C 203.351562 202.792969 201.941406 204.328125 200.507812 205.796875 C 196.75 209.640625 196.820312 215.804688 200.667969 219.5625 C 202.558594 221.414062 205.015625 222.335938 207.46875 222.335938 C 210 222.335938 212.527344 221.355469 214.433594 219.402344 C 216.140625 217.652344 217.824219 215.824219 219.425781 213.96875 C 222.941406 209.902344 222.496094 203.753906 218.429688 200.238281 Z M 218.429688 200.238281 "/>
<path style=" stroke:none;fill-rule:nonzero;fill:rgb(0%,0%,0%);fill-opacity:1;" d="M 239.5 128.386719 C 234.117188 128.226562 229.636719 132.453125 229.480469 137.828125 C 229.417969 139.886719 229.292969 141.964844 229.101562 144.015625 C 228.609375 149.367188 232.554688 154.105469 237.90625 154.597656 C 238.210938 154.625 238.511719 154.640625 238.808594 154.640625 C 243.78125 154.640625 248.027344 150.84375 248.492188 145.792969 C 248.714844 143.351562 248.867188 140.867188 248.941406 138.410156 C 249.097656 133.035156 244.875 128.546875 239.5 128.386719 Z M 239.5 128.386719 "/>
<path style=" stroke:none;fill-rule:nonzero;fill:rgb(0%,0%,0%);fill-opacity:1;" d="M 235.171875 166.136719 C 230.160156 164.175781 224.515625 166.644531 222.554688 171.652344 C 221.804688 173.566406 220.988281 175.488281 220.121094 177.355469 C 217.859375 182.234375 219.984375 188.019531 224.859375 190.28125 C 226.1875 190.894531 227.578125 191.183594 228.945312 191.183594 C 232.621094 191.183594 236.140625 189.09375 237.785156 185.539062 C 238.816406 183.316406 239.792969 181.03125 240.683594 178.75 C 242.644531 173.746094 240.175781 168.097656 235.171875 166.136719 Z M 235.171875 166.136719 "/>
<path style=" stroke:none;fill-rule:nonzero;fill:rgb(0%,0%,0%);fill-opacity:1;" d="M 202.019531 51.0625 C 205.21875 46.742188 204.308594 40.644531 199.988281 37.445312 C 198.019531 35.988281 195.980469 34.570312 193.925781 33.234375 C 189.417969 30.304688 183.386719 31.582031 180.457031 36.089844 C 177.527344 40.597656 178.804688 46.625 183.308594 49.554688 C 185.039062 50.679688 186.75 51.867188 188.402344 53.09375 C 190.144531 54.382812 192.175781 55.003906 194.1875 55.003906 C 197.167969 55.003906 200.109375 53.640625 202.019531 51.0625 Z M 202.019531 51.0625 "/>
</g>
</svg>
