<?xml version="1.0" encoding="UTF-8"?>
<svg xmlns="http://www.w3.org/2000/svg" xmlns:xlink="http://www.w3.org/1999/xlink" width="256pt" height="256pt" viewBox="0 0 256 256" version="1.1">
<g id="surface1">
<path style=" stroke:none;fill-rule:nonzero;fill:rgb(0%,0%,0%);fill-opacity:1;" d="M 226.230469 34.761719 C 215.175781 34.761719 206.183594 43.753906 206.183594 54.808594 C 206.183594 56.449219 206.378906 58.039062 206.753906 59.566406 L 168.789062 78.25 L 139.445312 36.328125 C 144.503906 32.691406 147.804688 26.746094 147.804688 20.050781 C 147.804688 8.996094 138.808594 0 127.75 0 C 116.695312 0 107.703125 8.996094 107.703125 20.050781 C 107.703125 26.703125 110.964844 32.613281 115.964844 36.261719 L 86.570312 78.25 L 48.640625 59.578125 C 49.398438 57.464844 49.816406 55.183594 49.816406 52.808594 C 49.816406 41.753906 40.824219 32.761719 29.769531 32.761719 C 18.710938 32.761719 9.714844 41.753906 9.714844 52.808594 C 9.714844 63.863281 18.710938 72.859375 29.769531 72.859375 C 31.199219 72.859375 32.601562 72.710938 33.945312 72.421875 L 57.273438 138.023438 L 57.273438 148.226562 L 198.015625 148.226562 L 198.015625 138.234375 L 220.816406 74.121094 C 222.539062 74.601562 224.355469 74.859375 226.230469 74.859375 C 237.289062 74.859375 246.285156 65.863281 246.285156 54.808594 C 246.285156 43.753906 237.289062 34.761719 226.230469 34.761719 Z M 226.230469 34.761719 "/>
<path style=" stroke:none;fill-rule:nonzero;fill:rgb(0%,0%,0%);fill-opacity:1;" d="M 25.386719 256 L 230.613281 256 L 230.613281 163.226562 L 25.386719 163.226562 Z M 152.46875 186.355469 L 160.960938 186.355469 L 182.910156 214.003906 L 182.910156 186.355469 L 193.789062 186.355469 L 193.789062 233.441406 L 185.035156 233.441406 L 163.351562 206.515625 L 163.351562 233.441406 L 152.46875 233.441406 Z M 132.574219 186.355469 L 143.453125 186.355469 L 143.453125 233.441406 L 132.574219 233.441406 Z M 69.503906 186.355469 L 81.378906 220.96875 L 86.019531 208.304688 L 78.261719 186.421875 L 88.273438 186.421875 L 93.050781 201.476562 L 97.824219 186.421875 L 107.90625 186.421875 L 100.015625 208.304688 L 104.789062 220.96875 L 116.59375 186.355469 L 128.464844 186.355469 L 109.628906 233.441406 L 100.546875 233.441406 L 93.050781 215 L 85.625 233.441406 L 76.46875 233.441406 L 57.703125 186.355469 Z M 69.503906 186.355469 "/>
</g>
</svg>
