<?xml version="1.0" encoding="utf-8"?>
<!-- Generator: Adobe Illustrator 16.0.0, SVG Export Plug-In . SVG Version: 6.00 Build 0)  -->
<!DOCTYPE svg PUBLIC "-//W3C//DTD SVG 1.1//EN" "http://www.w3.org/Graphics/SVG/1.1/DTD/svg11.dtd">
<svg version="1.1" id="Capa_1" xmlns="http://www.w3.org/2000/svg" xmlns:xlink="http://www.w3.org/1999/xlink" x="0px" y="0px"
	 width="150px" height="150px" viewBox="425 375 150 150" enable-background="new 425 375 150 150" xml:space="preserve">
<rect x="425" y="375.188" display="none" fill="#0068FF" width="150" height="150"/>
<path d="M560.414,461.514c-0.326-1.186-1.563-1.88-2.75-1.552c-0.625,0.176-1.094,0.604-1.368,1.14l-4.563,1.28l3.024-3.114
	c0.599,0.017,1.196-0.197,1.648-0.657c0.861-0.889,0.838-2.301-0.048-3.157c-0.883-0.86-2.297-0.842-3.154,0.041
	c-0.452,0.463-0.646,1.071-0.613,1.671l-3.258,3.355l1.238-4.986c0.524-0.289,0.937-0.774,1.09-1.401
	c0.295-1.196-0.428-2.405-1.625-2.706c-1.196-0.297-2.403,0.433-2.707,1.627c-0.152,0.628-0.017,1.249,0.312,1.75l-1.637,6.574
	c-0.013,0-3.321,0.05-3.66,0.054c-0.02-0.035-0.038-0.066-0.062-0.104c-0.072-0.121-7.909-12.852-7.984-12.971l-0.046,0.04
	c-0.555-3.777-1.865-7.161-3.809-9.683c-9.933-12.885-5.615-26.234-5.615-26.234l-0.004,0.002l0.753-2.062
	c1.047-2.87-0.005-6.086-2.546-7.786l-13.585-9.095c-1.929-1.29-4.386-1.478-6.492-0.501c-2.104,0.98-3.541,2.986-3.796,5.291
	l-1.782,16.255c-0.333,3.038,1.453,5.912,4.324,6.958c0,0,5.225,1.527,6.759,2.465c2.773,1.693,8.487,9.059,4.549,17.92
	c-1.376,0.053-13.986,0.537-13.99,0.537c0.003,0-0.006,0.001-0.021,0.002c-0.067-0.441-0.142-0.938-0.184-1.209l2.668-7.726
	c0.627-0.242,1.156-0.72,1.393-1.406c0.425-1.239-0.231-2.587-1.468-3.011c-1.23-0.43-2.588,0.228-3.018,1.465
	c-0.236,0.688-0.115,1.392,0.236,1.974l-1.74,5.018l-0.94-4.792c0.421-0.527,0.638-1.207,0.5-1.919
	c-0.253-1.286-1.503-2.12-2.782-1.869c-1.286,0.25-2.127,1.499-1.876,2.783c0.14,0.71,0.602,1.257,1.193,1.584l1.009,5.153
	l-3.784-4.307c0.102-0.666-0.056-1.366-0.535-1.913c-0.867-0.982-2.361-1.08-3.344-0.219c-0.984,0.866-1.079,2.359-0.216,3.346
	c0.479,0.545,1.152,0.789,1.826,0.775l5.003,5.698c-0.752,7.744,3.853,7.873,12.298,10.156c-4.783,4.62-11.704,9.34-21.008,10.952
	c0.741-5,1.479-6.872-0.979-10.177c-0.249-0.198-0.947-0.922-1.81-1.459c-2.146-1.199-3.108-0.938-8.184-0.696l-3.344-6.495
	c0.256-0.62,0.271-1.332-0.059-1.976c-0.602-1.165-2.034-1.617-3.194-1.017c-1.157,0.593-1.621,2.029-1.023,3.194
	c0.333,0.647,0.937,1.044,1.597,1.19l2.437,4.727l-4.128-2.63c-0.089-0.668-0.431-1.295-1.042-1.687
	c-1.102-0.705-2.569-0.377-3.269,0.725c-0.708,1.101-0.382,2.576,0.716,3.277c0.617,0.39,1.329,0.433,1.974,0.231l4.353,2.776
	l-0.005,0.044l-5.649-0.228c-1.398-1.801-4.131-0.812-4.222,1.338c-0.055,1.306,0.964,2.407,2.271,2.466
	c0.727,0.027,1.365-0.292,1.821-0.786l7.986,0.322l0.005-0.09c0.245,0.064,4.894,1.297,5.189,1.374
	c-0.552,1.142-3.293,6.774-3.293,6.774c-13.327-0.075-32.962-5.155-28.246-35.682c0.155-0.977-1.257-1.341-1.59-0.401
	c-4.461,12.654-8.729,38.469,24.007,50.528c0,0,7.72,2.348,17.067,3.617c0.256,0.285,0.507,0.562,0.8,0.887
	c0.193,0.214,5.513,6.1,5.708,6.314c-0.247,0.218-2.788,2.475-3.628,3.228l-0.035-0.076l-7.319,3.194
	c-0.601-0.295-1.313-0.356-1.978-0.069c-1.201,0.525-1.748,1.926-1.22,3.12c0.515,1.192,1.919,1.751,3.119,1.229
	c0.664-0.292,1.098-0.863,1.291-1.512l4.87-2.125l-2.888,3.942c-0.668,0.046-1.316,0.348-1.746,0.933
	c-0.779,1.055-0.542,2.543,0.506,3.309c1.06,0.776,2.546,0.553,3.321-0.504c0.426-0.588,0.517-1.295,0.358-1.949l3.102-4.232
	l-0.604,5.698c-0.558,0.379-0.967,0.969-1.042,1.69c-0.134,1.303,0.807,2.466,2.105,2.605c1.303,0.137,2.468-0.805,2.609-2.108
	c0.075-0.725-0.201-1.382-0.666-1.867l0.792-7.493c0,0,1.66-0.726,3.98-1.738c0.62-0.288,1.339-0.784,1.893-1.393
	c0.563-0.346,1.49-2.393,1.463-2.338c1.208-3.307-0.252-5.593-1.392-7.697c20.646,0.663,31.607-9.21,35.669-20.282
	c0.955,0.86,4.185,3.792,4.185,3.792c3.854,2.649,4.776,1.728,12.949-0.784l0.003,0.021l7.299-2.045
	c0.511,0.31,1.136,0.429,1.759,0.255C560.061,463.931,560.753,462.695,560.414,461.514z"/>
</svg>
